<svg width="99" height="36" viewBox="0 0 99 36" fill="none" xmlns="http://www.w3.org/2000/svg">
<path d="M14.814 7.354L15.5386 6.04063L14.8137 5.6407L14.089 6.04085L14.814 7.354ZM16.578 9.154L15.2851 9.91455L15.2901 9.92291L16.578 9.154ZM17.352 11.692L18.0359 13.027L18.8896 12.5897L18.8508 11.6312L17.352 11.692ZM10.746 15.076L10.0621 13.741L10.0433 13.7506L10.0247 13.7608L10.746 15.076ZM9.216 15.778L8.65005 14.3889L9.216 15.778ZM7.668 16.372L7.18038 14.9535L6.168 15.3015V16.372H7.668ZM7.668 16.66H6.168V17.7628L7.22059 18.0917L7.668 16.66ZM9.216 17.254L8.62821 18.634L8.6391 18.6387L8.65006 18.6431L9.216 17.254ZM10.746 17.938L10.058 19.2709L10.0592 19.2716L10.746 17.938ZM17.352 21.34L18.847 21.4629L18.929 20.4649L18.0388 20.0064L17.352 21.34ZM16.506 23.932L15.207 23.1819L15.2036 23.1878L16.506 23.932ZM14.778 25.732L14.05 27.0435L14.7652 27.4405L15.4863 27.0542L14.778 25.732ZM2.034 18.658L0.580478 19.0285L0.740295 19.6555L1.30601 19.9695L2.034 18.658ZM1.782 16.552L3.28183 16.5293L1.782 16.552ZM2.034 14.41L1.30899 13.0968L0.761119 13.3993L0.590691 14.0015L2.034 14.41ZM14.0894 8.66737C14.5083 8.89851 14.9153 9.2859 15.2851 9.91453L17.8709 8.39347C17.2807 7.3901 16.5117 6.57749 15.5386 6.04063L14.0894 8.66737ZM15.2901 9.92291C15.649 10.524 15.8279 11.1282 15.8532 11.7528L18.8508 11.6312C18.8041 10.4798 18.467 9.39195 17.8659 8.38509L15.2901 9.92291ZM16.6681 10.357L10.0621 13.741L11.4299 16.411L18.0359 13.027L16.6681 10.357ZM10.0247 13.7608C9.72475 13.9253 9.27422 14.1346 8.65005 14.3889L9.78195 17.1671C10.4538 16.8934 11.0232 16.6347 11.4673 16.3912L10.0247 13.7608ZM8.65005 14.3889C8.01234 14.6487 7.52585 14.8347 7.18038 14.9535L8.15562 17.7905C8.57815 17.6453 9.12367 17.4353 9.78195 17.1671L8.65005 14.3889ZM6.168 16.372V16.66H9.168V16.372H6.168ZM7.22059 18.0917C7.53448 18.1898 7.99759 18.3654 8.62821 18.634L9.80379 15.874C9.13841 15.5906 8.56953 15.3702 8.11541 15.2283L7.22059 18.0917ZM8.65006 18.6431C9.28008 18.8998 9.74337 19.1085 10.058 19.2709L11.434 16.6051C11.0046 16.3835 10.4479 16.1362 9.78194 15.8649L8.65006 18.6431ZM10.0592 19.2716L16.6652 22.6736L18.0388 20.0064L11.4328 16.6044L10.0592 19.2716ZM15.857 21.2171C15.8053 21.847 15.6015 22.4988 15.207 23.1819L17.805 24.6821C18.3945 23.6612 18.7547 22.585 18.847 21.4629L15.857 21.2171ZM15.2036 23.1878C14.8262 23.8484 14.4345 24.2143 14.0697 24.4098L15.4863 27.0542C16.4655 26.5297 17.2258 25.6956 17.8084 24.6762L15.2036 23.1878ZM15.506 24.4205L2.76199 17.3465L1.30601 19.9695L14.05 27.0435L15.506 24.4205ZM3.48752 18.2875C3.36674 17.8137 3.29248 17.2322 3.28183 16.5293L0.282172 16.5747C0.295522 17.4558 0.38926 18.2783 0.580478 19.0285L3.48752 18.2875ZM3.28183 16.5293C3.27161 15.8551 3.34394 15.2897 3.47731 14.8185L0.590691 14.0015C0.364056 14.8023 0.268387 15.6649 0.282172 16.5747L3.28183 16.5293ZM2.75901 15.7232L15.539 8.66715L14.089 6.04085L1.30899 13.0968L2.75901 15.7232ZM32.4014 2.152L32.5742 0.66198L31.409 0.526886L30.997 1.62513L32.4014 2.152ZM34.9034 2.746L34.3989 4.15861L34.4079 4.16182L34.4169 4.16492L34.9034 2.746ZM37.1894 3.97L38.5936 4.4976L38.9834 3.45996L38.106 2.78261L37.1894 3.97ZM25.8674 34.102L25.6921 35.5917L26.8585 35.7289L27.2716 34.6296L25.8674 34.102ZM23.3834 33.526L23.8699 32.1071L23.3834 33.526ZM21.0974 32.284L19.693 31.7571L19.3083 32.7826L20.1679 33.4613L21.0974 32.284ZM32.2287 3.64202C32.9359 3.72401 33.6587 3.89426 34.3989 4.15861L35.4079 1.33338C34.4681 0.997734 33.5229 0.771982 32.5742 0.66198L32.2287 3.64202ZM34.4169 4.16492C35.1062 4.40125 35.7222 4.73231 36.2728 5.15738L38.106 2.78261C37.2886 2.15168 36.3806 1.66675 35.3899 1.32708L34.4169 4.16492ZM35.7853 3.4424L24.4633 33.5744L27.2716 34.6296L38.5936 4.4976L35.7853 3.4424ZM26.0427 32.6123C25.3408 32.5297 24.617 32.3632 23.8699 32.1071L22.8969 34.9449C23.8298 35.2648 24.762 35.4823 25.6921 35.5917L26.0427 32.6123ZM23.8699 32.1071C23.187 31.873 22.5754 31.5397 22.0269 31.1067L20.1679 33.4613C20.9874 34.1083 21.8998 34.603 22.8969 34.9449L23.8699 32.1071ZM22.5018 32.8109L33.8058 2.67887L30.997 1.62513L19.693 31.7571L22.5018 32.8109ZM55.1264 25.48L53.6601 25.7963L53.6614 25.8023L55.1264 25.48ZM55.8284 27.082L56.7854 28.237L57.8631 27.3441L57.0469 26.2072L55.8284 27.082ZM54.2804 27.946L54.8041 29.3516L54.2804 27.946ZM49.9604 27.388L48.7546 28.2803L49.9604 27.388ZM48.9704 15.346L47.6369 16.0329L47.6496 16.0574L47.663 16.0814L48.9704 15.346ZM46.5044 15.04L47.0615 16.4327H47.0615L46.5044 15.04ZM45.0824 15.976L44.065 14.8738L43.5824 15.3193V15.976H45.0824ZM45.0824 28L45.3507 29.4758L46.5824 29.2519V28H45.0824ZM43.7324 28.162L43.6255 26.6658L43.6229 26.666L43.7324 28.162ZM40.8164 28.162L40.7095 29.6582L40.8164 28.162ZM39.4484 28H37.9484V29.2585L39.1877 29.4772L39.4484 28ZM39.4484 10.036L38.3877 8.97534L37.9484 9.41468V10.036H39.4484ZM39.7004 9.784V8.284H39.0791L38.6397 8.72334L39.7004 9.784ZM43.7144 10.36L42.7915 11.5425L42.8074 11.5549L42.8236 11.5669L43.7144 10.36ZM44.8124 11.926L43.3919 12.4079L44.1078 14.5178L45.7933 13.0608L44.8124 11.926ZM47.1164 10.36L47.8103 11.6899L47.1164 10.36ZM53.6324 11.512L52.4093 12.3804L52.4143 12.3873L52.4193 12.3943L53.6324 11.512ZM53.4284 23.5C53.4284 24.3007 53.503 25.0679 53.6601 25.7963L56.5927 25.1637C56.4858 24.6681 56.4284 24.1153 56.4284 23.5H53.4284ZM53.6614 25.8023C53.8343 26.5879 54.1473 27.3125 54.6099 27.9568L57.0469 26.2072C56.8375 25.9155 56.6825 25.5721 56.5914 25.1577L53.6614 25.8023ZM54.8714 25.927C54.6035 26.149 54.2415 26.3598 53.7567 26.5404L54.8041 29.3516C55.5434 29.0762 56.2134 28.711 56.7854 28.237L54.8714 25.927ZM53.7567 26.5404C53.323 26.702 52.8475 26.788 52.3184 26.788V29.788C53.1814 29.788 54.0138 29.646 54.8041 29.3516L53.7567 26.5404ZM52.3184 26.788C51.4141 26.788 51.2051 26.5484 51.1662 26.4957L48.7546 28.2803C49.6037 29.4276 50.9667 29.788 52.3184 29.788V26.788ZM51.1662 26.4957C50.9886 26.2558 50.7944 25.7581 50.7944 24.796H47.7944C47.7944 26.0899 48.0442 27.3202 48.7546 28.2803L51.1662 26.4957ZM50.7944 24.796V17.146H47.7944V24.796H50.7944ZM50.7944 17.146C50.7944 16.2578 50.6874 15.3388 50.2778 14.6106L47.663 16.0814C47.6619 16.0794 47.6722 16.0973 47.6874 16.1436C47.7026 16.1897 47.7204 16.2569 47.7371 16.3497C47.7711 16.5383 47.7944 16.7993 47.7944 17.146H50.7944ZM50.3039 14.6591C49.7535 13.5906 48.7003 13.252 47.7644 13.252V16.252C47.9089 16.252 47.916 16.2771 47.8531 16.2461C47.8189 16.2293 47.7745 16.2007 47.7303 16.1573C47.686 16.114 47.6556 16.0692 47.6369 16.0329L50.3039 14.6591ZM47.7644 13.252C47.1497 13.252 46.5335 13.4128 45.9473 13.6473L47.0615 16.4327C47.4353 16.2832 47.6591 16.252 47.7644 16.252V13.252ZM45.9473 13.6473C45.2631 13.921 44.6373 14.3455 44.065 14.8738L46.0998 17.0782C46.4635 16.7425 46.7857 16.543 47.0615 16.4327L45.9473 13.6473ZM43.5824 15.976V28H46.5824V15.976H43.5824ZM44.8141 26.5242C44.4829 26.5844 44.0884 26.6328 43.6255 26.6658L43.8393 29.6582C44.3844 29.6192 44.8899 29.5596 45.3507 29.4758L44.8141 26.5242ZM43.6229 26.666C43.1664 26.6994 42.7169 26.716 42.2744 26.716V29.716C42.7919 29.716 43.3144 29.6966 43.8419 29.658L43.6229 26.666ZM42.2744 26.716C41.8447 26.716 41.3945 26.6995 40.9233 26.6658L40.7095 29.6582C41.2463 29.6965 41.7681 29.716 42.2744 29.716V26.716ZM40.9233 26.6658C40.4601 26.6327 40.0566 26.5841 39.7091 26.5228L39.1877 29.4772C39.6562 29.5599 40.1647 29.6193 40.7095 29.6582L40.9233 26.6658ZM40.9484 28V10.036H37.9484V28H40.9484ZM40.5091 11.0967L40.7611 10.8447L38.6397 8.72334L38.3877 8.97534L40.5091 11.0967ZM39.7004 11.284H41.8244V8.284H39.7004V11.284ZM41.8244 11.284C42.337 11.284 42.6193 11.4081 42.7915 11.5425L44.6373 9.17753C43.8255 8.5439 42.8478 8.284 41.8244 8.284V11.284ZM42.8236 11.5669C43.0493 11.7334 43.2488 11.986 43.3919 12.4079L46.2329 11.4441C45.92 10.522 45.3875 9.73058 44.6052 9.15314L42.8236 11.5669ZM45.7933 13.0608C46.4137 12.5246 47.0854 12.0681 47.8103 11.6899L46.4226 9.03012C45.4914 9.51593 44.6271 10.1034 43.8315 10.7912L45.7933 13.0608ZM47.8103 11.6899C48.4048 11.3797 49.0873 11.212 49.8884 11.212V8.212C48.6495 8.212 47.4841 8.4763 46.4226 9.03012L47.8103 11.6899ZM49.8884 11.212C51.1125 11.212 51.8748 11.6275 52.4093 12.3804L54.8555 10.6436C53.686 8.99645 51.9523 8.212 49.8884 8.212V11.212ZM52.4193 12.3943C53.0502 13.2617 53.4284 14.4632 53.4284 16.12H56.4284C56.4284 14.0088 55.9426 12.1383 54.8455 10.6297L52.4193 12.3943ZM53.4284 16.12V23.5H56.4284V16.12H53.4284ZM60.7379 14.014L59.3763 13.3847L59.3739 13.3898L60.7379 14.014ZM63.3659 10.774L62.5307 9.52803L63.3659 10.774ZM68.7299 9.892L68.3434 11.3414L68.3513 11.3434L68.7299 9.892ZM70.2959 10.45L69.6652 11.811L71.7959 12.7984V10.45H70.2959ZM70.2959 1.756L69.2352 0.695341L68.7959 1.13468V1.756H70.2959ZM70.5479 1.504V0.0039978H69.9266L69.4872 0.44334L70.5479 1.504ZM75.0839 2.26L73.9716 3.26637L73.9781 3.27356L73.9847 3.28067L75.0839 2.26ZM76.0559 24.364L74.6559 24.9025L74.6618 24.918L74.6682 24.9333L76.0559 24.364ZM76.7939 25.408L78.259 25.7296L78.4645 24.7936L77.7015 24.2138L76.7939 25.408ZM76.1099 27.01L74.826 26.2343L74.8201 26.2442L74.8142 26.2542L76.1099 27.01ZM75.0839 28.288L75.0439 29.7875L75.5889 29.802L76.016 29.4632L75.0839 28.288ZM72.7619 27.73L72.023 29.0354L72.0375 29.0436L72.0522 29.0515L72.7619 27.73ZM71.2139 26.29L72.4658 25.4637L71.4237 23.8847L70.1239 25.2595L71.2139 26.29ZM68.9999 27.91L69.6631 29.2554L68.9999 27.91ZM62.5919 27.352L61.6302 28.5032L61.6373 28.5091L62.5919 27.352ZM60.4679 24.076L59.0449 24.5503L59.0461 24.554L60.4679 24.076ZM66.1379 22.906L64.8178 23.6184L64.8227 23.6272L66.1379 22.906ZM68.9279 23.734L68.3586 22.3462L68.9279 23.734ZM70.2959 22.618L71.4647 23.5581L71.7959 23.1464V22.618H70.2959ZM70.2959 14.698H71.7959V13.8487L71.0676 13.4118L70.2959 14.698ZM69.0719 14.086L69.6217 12.6904H69.6217L69.0719 14.086ZM66.0839 15.31L64.6888 14.7589L64.6859 14.7663L64.683 14.7738L66.0839 15.31ZM61.2659 19.234C61.2659 17.3186 61.5677 15.8055 62.1019 14.6382L59.3739 13.3898C58.6122 15.0545 58.2659 17.0214 58.2659 19.234H61.2659ZM62.0995 14.6433C62.6668 13.4158 63.3793 12.5709 64.2011 12.02L62.5307 9.52803C61.1686 10.4411 60.129 11.7562 59.3763 13.3847L62.0995 14.6433ZM64.2011 12.02C65.045 11.4543 65.96 11.176 66.9839 11.176V8.176C65.3678 8.176 63.8708 8.6297 62.5307 9.52803L64.2011 12.02ZM66.9839 11.176C67.4924 11.176 67.9432 11.2346 68.3434 11.3414L69.1164 8.44265C68.4366 8.26138 67.7234 8.176 66.9839 8.176V11.176ZM68.3513 11.3434C68.8212 11.466 69.2585 11.6225 69.6652 11.811L70.9266 9.08903C70.3494 8.82153 69.7426 8.60599 69.1085 8.44057L68.3513 11.3434ZM71.7959 10.45V1.756H68.7959V10.45H71.7959ZM71.3566 2.81666L71.6086 2.56466L69.4872 0.44334L69.2352 0.695341L71.3566 2.81666ZM70.5479 3.004H72.7439V0.0039978H70.5479V3.004ZM72.7439 3.004C73.681 3.004 73.9358 3.22682 73.9716 3.26637L76.1962 1.25363C75.32 0.285173 74.0148 0.0039978 72.7439 0.0039978V3.004ZM73.9847 3.28067C74.0538 3.35508 74.2859 3.74099 74.2859 4.888H77.2859C77.2859 3.539 77.05 2.17292 76.1831 1.23932L73.9847 3.28067ZM74.2859 4.888V22.798H77.2859V4.888H74.2859ZM74.2859 22.798C74.2859 23.5311 74.4007 24.2391 74.6559 24.9025L77.4559 23.8255C77.3511 23.5529 77.2859 23.2169 77.2859 22.798H74.2859ZM74.6682 24.9333C74.9281 25.5669 75.3126 26.1662 75.8863 26.6022L77.7015 24.2138C77.6752 24.1938 77.5677 24.0971 77.4437 23.7947L74.6682 24.9333ZM75.3288 25.0864C75.2655 25.3745 75.1159 25.7546 74.826 26.2343L77.3938 27.7857C77.7999 27.1134 78.1063 26.4255 78.259 25.7296L75.3288 25.0864ZM74.8142 26.2542C74.5297 26.7419 74.2995 26.9956 74.1518 27.1128L76.016 29.4632C76.5643 29.0284 77.0181 28.4301 77.4056 27.7658L74.8142 26.2542ZM75.1239 26.7885C74.4064 26.7694 73.8722 26.6236 73.4716 26.4085L72.0522 29.0515C72.9476 29.5324 73.9615 29.7586 75.0439 29.7875L75.1239 26.7885ZM73.5008 26.4246C73.0677 26.1795 72.7289 25.8623 72.4658 25.4637L69.962 27.1163C70.4909 27.9177 71.1841 28.5605 72.023 29.0354L73.5008 26.4246ZM70.1239 25.2595C69.6279 25.7841 69.0363 26.2197 68.3367 26.5646L69.6631 29.2554C70.6675 28.7603 71.5519 28.1159 72.3039 27.3205L70.1239 25.2595ZM68.3367 26.5646C67.701 26.8779 67.0054 27.04 66.2279 27.04V30.04C67.4424 30.04 68.5948 29.7821 69.6631 29.2554L68.3367 26.5646ZM66.2279 27.04C65.0479 27.04 64.192 26.7275 63.5465 26.1949L61.6373 28.5091C62.9118 29.5605 64.4799 30.04 66.2279 30.04V27.04ZM63.5536 26.2009C62.8554 25.6175 62.2863 24.7775 61.8897 23.598L59.0461 24.554C59.5856 26.1585 60.4325 27.5025 61.6302 28.5031L63.5536 26.2009ZM61.8909 23.6017C61.4842 22.3814 61.2659 20.9328 61.2659 19.234H58.2659C58.2659 21.1832 58.5156 22.9626 59.0449 24.5503L61.8909 23.6017ZM64.0259 19.27C64.0259 20.9939 64.2254 22.5206 64.8179 23.6184L67.4579 22.1936C67.2344 21.7794 67.0259 20.8821 67.0259 19.27H64.0259ZM64.8227 23.6272C65.3859 24.6543 66.3211 25.522 67.6859 25.522V22.522C67.6815 22.522 67.6897 22.5218 67.7035 22.5263C67.717 22.5307 67.7191 22.5342 67.7081 22.5262C67.6811 22.5067 67.5839 22.4233 67.4531 22.1848L64.8227 23.6272ZM67.6859 25.522C68.3031 25.522 68.9165 25.36 69.4972 25.1218L68.3586 22.3462C68.0034 22.492 67.7887 22.522 67.6859 22.522V25.522ZM69.4972 25.1218C70.2748 24.8027 70.9221 24.2328 71.4647 23.5581L69.1271 21.6779C68.7817 22.1072 68.517 22.2813 68.3586 22.3462L69.4972 25.1218ZM71.7959 22.618V14.698H68.7959V22.618H71.7959ZM71.0676 13.4118C70.5871 13.1235 70.105 12.8808 69.6217 12.6904L68.5221 15.4816C68.8308 15.6032 69.1647 15.7685 69.5242 15.9842L71.0676 13.4118ZM69.6217 12.6904C69.0885 12.4803 68.5289 12.352 67.9559 12.352V15.352C68.0789 15.352 68.2633 15.3797 68.5221 15.4816L69.6217 12.6904ZM67.9559 12.352C67.2228 12.352 66.5184 12.5656 65.9182 13.0331C65.3373 13.4855 64.9486 14.1014 64.6888 14.7589L67.479 15.8611C67.6033 15.5466 67.7185 15.4335 67.7616 15.3999C67.7854 15.3814 67.825 15.352 67.9559 15.352V12.352ZM64.683 14.7738C64.218 15.9888 64.0259 17.5158 64.0259 19.27H67.0259C67.0259 17.6882 67.2058 16.5752 67.4848 15.8461L64.683 14.7738ZM84.213 25.66L83.5059 26.9829L84.2232 27.3663L84.9358 26.9744L84.213 25.66ZM82.449 23.878L81.1561 24.6385L82.449 23.878ZM81.675 21.34L80.9882 20.0064L80.1369 20.4449L80.1763 21.4016L81.675 21.34ZM88.281 17.938L88.9678 19.2716L88.969 19.2709L88.281 17.938ZM89.811 17.254L90.3769 18.6431L90.3879 18.6387L90.3988 18.634L89.811 17.254ZM91.359 16.642L91.8466 18.0605L92.859 17.7125V16.642H91.359ZM91.359 16.372H92.859V15.3015L91.8466 14.9535L91.359 16.372ZM89.811 15.778L89.2232 17.158L89.2341 17.1627L89.2451 17.1671L89.811 15.778ZM88.281 15.076L88.969 13.7431L88.9649 13.741L88.281 15.076ZM81.675 11.692L80.1799 11.5708L80.0989 12.57L80.9911 13.027L81.675 11.692ZM82.521 9.1L83.8154 9.85812L83.82 9.85011L82.521 9.1ZM84.249 7.282L84.9776 5.97085L84.2557 5.56969L83.5307 5.96516L84.249 7.282ZM97.011 14.374L98.4627 13.9965L98.3011 13.3749L97.7396 13.0629L97.011 14.374ZM97.245 16.462H95.745V16.4734L95.7452 16.4847L97.245 16.462ZM97.011 18.622L97.7338 19.9364L98.3007 19.6246L98.463 18.9984L97.011 18.622ZM84.9201 24.3371C84.512 24.119 84.1101 23.7435 83.7419 23.1175L81.1561 24.6385C81.7479 25.6445 82.522 26.457 83.5059 26.9829L84.9201 24.3371ZM83.7419 23.1175C83.3767 22.4966 83.1988 21.8886 83.1737 21.2784L80.1763 21.4016C80.2232 22.5434 80.5613 23.6274 81.1561 24.6385L83.7419 23.1175ZM82.3618 22.6736L88.9678 19.2716L87.5942 16.6044L80.9882 20.0064L82.3618 22.6736ZM88.969 19.2709C89.2836 19.1085 89.7469 18.8998 90.3769 18.6431L89.2451 15.8649C88.5791 16.1362 88.0224 16.3835 87.593 16.6051L88.969 19.2709ZM90.3988 18.634C91.034 18.3635 91.5122 18.1755 91.8466 18.0605L90.8714 15.2235C90.4378 15.3725 89.884 15.5925 89.2232 15.874L90.3988 18.634ZM92.859 16.642V16.372H89.859V16.642H92.859ZM91.8466 14.9535C91.5012 14.8347 91.0147 14.6487 90.377 14.3889L89.2451 17.1671C89.9033 17.4353 90.4489 17.6453 90.8714 17.7905L91.8466 14.9535ZM90.3988 14.398C89.7653 14.1281 89.2936 13.9106 88.969 13.7431L87.593 16.4089C88.0124 16.6254 88.5607 16.8759 89.2232 17.158L90.3988 14.398ZM88.9649 13.741L82.3589 10.357L80.9911 13.027L87.5971 16.411L88.9649 13.741ZM83.1701 11.8132C83.2222 11.1701 83.4265 10.5219 83.8153 9.8581L81.2267 8.34189C80.6315 9.35811 80.2718 10.4379 80.1799 11.5708L83.1701 11.8132ZM83.82 9.85011C84.2158 9.16474 84.6131 8.79202 84.9673 8.59884L83.5307 5.96516C82.5649 6.49197 81.8103 7.33125 81.222 8.34989L83.82 9.85011ZM83.5204 8.59315L96.2824 15.6851L97.7396 13.0629L84.9776 5.97085L83.5204 8.59315ZM95.5593 14.7514C95.6758 15.1996 95.745 15.764 95.745 16.462H98.745C98.745 15.576 98.6582 14.7484 98.4627 13.9965L95.5593 14.7514ZM95.7452 16.4847C95.7555 17.166 95.6877 17.7491 95.559 18.2456L98.463 18.9984C98.6703 18.1989 98.7585 17.342 98.7448 16.4393L95.7452 16.4847ZM96.2882 17.3076L83.4902 24.3456L84.9358 26.9744L97.7338 19.9364L96.2882 17.3076Z" fill="white"/>
</svg>
